<svg width="65" height="65" viewBox="0 0 65 65" fill="none" xmlns="http://www.w3.org/2000/svg">
<path d="M65 21.6939C65 30.5248 60.1393 37.2103 52.6052 44.4446C49.7374 47.2386 46.4808 50.0824 42.9325 53.1757L42.8353 53.2755C40.9882 54.9219 38.8495 56.7679 36.6622 58.7137L35.0095 60.2105L34.1832 60.9589L32.482 62.5055L30.1488 60.4101L29.9544 60.2604L28.6906 59.1129L28.3018 58.7636C26.1145 56.8178 23.9758 54.9718 22.1287 53.3254L22.0801 53.2755C18.5318 50.1822 15.2752 47.2885 12.3587 44.5444C6.81755 39.206 2.73456 34.1669 0.984711 28.3794C0.352822 26.2839 0.0125732 24.1386 0.0125732 21.7937C0.0125732 19.4487 0.352822 17.2036 0.984711 15.1081C3.46366 6.92587 10.4145 1.1384 18.8234 1.1384C19.6498 1.1384 20.4275 1.18829 21.2538 1.33797C23.3925 1.63732 25.4826 2.3857 27.3783 3.48332L26.4061 5.27943C24.8021 4.33148 23.1009 3.73278 21.3024 3.43343C20.4761 3.28375 19.6498 3.23386 18.8234 3.23386C9.39371 3.23386 2.00547 11.4161 2.00547 21.8436C2.00547 29.6766 6.33147 35.8632 13.1364 42.5487C16.1015 45.4924 19.6012 48.5358 23.3439 51.8286L23.3925 51.8785C25.2396 53.525 27.3783 55.371 29.5656 57.3167L30.8294 58.4144L31.6557 59.1628L31.7043 59.2126L32.4334 59.8612L32.9681 59.3623L34.0374 58.3645L35.3012 57.2669C37.4885 55.3211 39.6272 53.4751 41.4743 51.8286L41.5715 51.7288C45.3628 48.436 48.8139 45.3926 51.7789 42.4988C58.5839 35.8133 62.9099 29.6267 62.9099 21.7937C62.9099 11.3662 55.5217 3.18397 46.0919 3.18397C45.2656 3.18397 44.4879 3.23386 43.6616 3.38354C42.9325 3.48332 42.2034 3.68289 41.4743 3.93235L40.891 1.98656C41.8145 1.68721 42.7866 1.43775 43.7588 1.33797C44.5365 1.23818 45.3142 1.18829 46.0919 1.18829C56.7368 1.03861 65 10.119 65 21.6939Z" fill="#1F7168"/>
<path d="M30.6784 6.47685L30.5326 6.7762C30.0465 7.67425 28.9285 7.97361 28.0536 7.47469L21.9291 3.83257C21.6861 3.68289 21.5402 3.53322 21.3944 3.33365C21.0056 2.78484 20.9084 1.98657 21.2972 1.28808L21.3458 1.23819L21.4916 0.988731C21.9777 0.0906754 23.0957 -0.208677 23.9706 0.290242L30.0951 3.93236C30.8728 4.43128 31.1644 5.57879 30.6784 6.47685Z" fill="#4C8D86"/>
<path d="M35.0605 60.1607C35.1092 60.8093 34.8661 61.5077 34.4287 62.0566C34.3801 62.1064 34.3314 62.1563 34.2828 62.2062C33.7967 62.6553 33.2135 62.9047 32.5816 62.9047H32.533C31.9011 62.9047 31.3178 62.7052 30.8317 62.2561L30.054 61.5576L27.2834 59.0131L13.2847 46.2408C12.75 45.7419 12.4583 45.0933 12.4097 44.4447C12.3611 43.7462 12.5556 43.0477 13.0416 42.4989C13.0902 42.449 13.1388 42.3991 13.1874 42.3492C13.6735 41.8503 14.3054 41.6008 14.9859 41.6008C15.6178 41.6008 16.2011 41.8004 16.6871 42.2494L32.1441 56.3689L32.533 56.7181L34.137 58.2149L34.1856 58.2648C34.7689 58.8136 35.0605 59.5121 35.0605 60.1607Z" fill="#4C8D86"/>
<path d="M34.2739 62.256L51.821 46.2407C52.8904 45.2928 52.9876 43.5964 52.0155 42.4988C51.0919 41.4012 49.4393 41.3014 48.3699 42.2993L30.8229 58.3146C29.7535 59.2625 29.6563 60.9588 30.6284 62.0565C31.5519 63.1541 33.2046 63.2539 34.2739 62.256Z" fill="#4C8D86"/>
<path d="M37.1089 7.42479L43.2334 3.78267C44.1083 3.28376 44.4 2.13624 43.9139 1.23819L43.7681 0.938834C43.282 0.0407792 42.164 -0.258573 41.2891 0.240346L35.1647 3.88246C34.2897 4.38138 33.9981 5.52889 34.4842 6.42695L34.63 6.7263C35.116 7.62436 36.234 7.92371 37.1089 7.42479Z" fill="#4C8D86"/>
<path d="M32.1354 65C30.9688 65 29.9966 64.0022 29.9966 62.8048V61.2082C29.9966 60.0108 30.9688 59.013 32.1354 59.013C33.3021 59.013 34.2743 60.0108 34.2743 61.2082V62.8048C34.2743 64.0521 33.3021 65 32.1354 65Z" fill="#4C8D86"/>
<path d="M57.8071 21.9932C57.8071 30.874 50.1758 37.5595 38.656 47.6377C36.8089 49.2841 34.7188 51.0802 32.5801 53.026C32.4343 52.9262 32.3371 52.7765 32.1913 52.6767C30.1498 50.8806 28.2541 49.1843 26.5042 47.6377C14.9844 37.5595 7.35315 30.874 7.35315 21.9932C7.35315 14.21 12.5055 8.32278 19.4077 8.32278C21.7894 8.32278 24.0253 9.12106 25.9696 10.6677C27.9625 12.2643 29.2749 14.3098 30.0526 15.7567L32.2399 19.8478L32.6287 20.5962L35.2049 15.7567C35.9826 14.3098 37.295 12.2643 39.2879 10.6677C41.2322 9.12106 43.4195 8.32278 45.8498 8.32278C52.6062 8.32278 57.8071 14.21 57.8071 21.9932Z" fill="#1F7168"/>
<path opacity="0.64" d="M32.1854 19.8284V52.6451C30.1379 50.8469 28.2366 49.1486 26.4815 47.6002C14.9275 37.5104 7.27356 30.8172 7.27356 21.9262C7.27356 14.1341 12.4412 8.24011 19.3639 8.24011C21.7527 8.24011 23.9952 9.0393 25.9453 10.5877C27.9441 12.1861 29.2603 14.234 30.0403 15.6826L32.1854 19.8284Z" fill="#1F7168"/>
<path d="M40.9887 28.7886H35.4961V23.1508H29.5661V28.7886H24.0735V34.8754H29.5661V40.5132H35.4961V34.8754H40.9887V28.7886Z" fill="#FEFFFF"/>
</svg>
