<svg width="18" height="18" viewBox="0 0 18 18" fill="none" xmlns="http://www.w3.org/2000/svg">
<path d="M7.5 13.275H4.6575C1.8075 13.275 0.9375 12.405 0.9375 9.55496V5.05496C0.9375 2.20496 1.8075 1.33496 4.6575 1.33496H12.555C15.405 1.33496 16.275 2.20496 16.275 5.05496C16.275 5.36246 16.02 5.61746 15.7125 5.61746C15.405 5.61746 15.15 5.36246 15.15 5.05496C15.15 2.84996 14.76 2.45996 12.555 2.45996H4.6575C2.4525 2.45996 2.0625 2.84996 2.0625 5.05496V9.55496C2.0625 11.76 2.4525 12.15 4.6575 12.15H7.5C7.8075 12.15 8.0625 12.405 8.0625 12.7125C8.0625 13.02 7.8075 13.275 7.5 13.275Z" fill="#414141"/>
<path d="M7.5 16.665C7.1925 16.665 6.9375 16.41 6.9375 16.1025V12.705C6.9375 12.3975 7.1925 12.1425 7.5 12.1425C7.8075 12.1425 8.0625 12.3975 8.0625 12.705V16.1025C8.0625 16.4175 7.8075 16.665 7.5 16.665Z" fill="#414141"/>
<path d="M7.5 10.275H1.5C1.1925 10.275 0.9375 10.02 0.9375 9.71252C0.9375 9.40502 1.1925 9.15002 1.5 9.15002H7.5C7.8075 9.15002 8.0625 9.40502 8.0625 9.71252C8.0625 10.02 7.8075 10.275 7.5 10.275Z" fill="#414141"/>
<path d="M7.49993 16.665H5.05493C4.74743 16.665 4.49243 16.41 4.49243 16.1025C4.49243 15.795 4.74743 15.54 5.05493 15.54H7.49993C7.80743 15.54 8.06243 15.795 8.06243 16.1025C8.06243 16.41 7.80743 16.665 7.49993 16.665Z" fill="#414141"/>
<path d="M14.28 16.665H11.6175C9.53996 16.665 8.83496 15.96 8.83496 13.8825V9.6C8.83496 7.5225 9.53996 6.8175 11.6175 6.8175H14.28C16.3575 6.8175 17.0625 7.5225 17.0625 9.6V13.8825C17.0625 15.9675 16.3575 16.665 14.28 16.665ZM11.6175 7.9425C10.1475 7.9425 9.95996 8.13 9.95996 9.6V13.8825C9.95996 15.3525 10.1475 15.54 11.6175 15.54H14.28C15.75 15.54 15.9375 15.3525 15.9375 13.8825V9.6C15.9375 8.13 15.75 7.9425 14.28 7.9425H11.6175Z" fill="#414141"/>
<path d="M12.9751 14.2275C12.7801 14.2275 12.5851 14.1525 12.4426 14.01C12.3751 13.9425 12.3226 13.86 12.2851 13.77C12.2476 13.6725 12.2251 13.575 12.2251 13.4775C12.2251 13.2825 12.3076 13.0875 12.4426 12.9525C12.6151 12.78 12.8776 12.6975 13.1251 12.7425C13.1701 12.7575 13.2151 12.7725 13.2601 12.7875C13.3051 12.81 13.3501 12.8325 13.3876 12.855C13.4326 12.885 13.4701 12.915 13.5076 12.9525C13.6426 13.0875 13.7251 13.2825 13.7251 13.4775C13.7251 13.575 13.7026 13.6725 13.6651 13.77C13.6276 13.86 13.5751 13.9425 13.5076 14.01C13.4701 14.0475 13.4326 14.0775 13.3876 14.1C13.3501 14.13 13.3051 14.1525 13.2601 14.175C13.2151 14.19 13.1701 14.205 13.1251 14.2125C13.0726 14.2275 13.0276 14.2275 12.9751 14.2275Z" fill="#414141"/>
</svg>
