<svg width="150" height="150" viewBox="0 0 150 150" fill="none" xmlns="http://www.w3.org/2000/svg">
<rect x="3" y="3" width="144" height="144" rx="72" fill="#F5F5F5"/>
<rect x="3" y="3" width="144" height="144" rx="72" stroke="#FDFDFD" stroke-width="6"/>
<path d="M101.001 108H85.001C83.361 108 82.001 106.64 82.001 105C82.001 103.36 83.361 102 85.001 102H101.001C102.641 102 104.001 103.36 104.001 105C104.001 106.64 102.641 108 101.001 108Z" fill="#1F7168"/>
<path d="M93.001 116C91.361 116 90.001 114.64 90.001 113V97C90.001 95.36 91.361 94 93.001 94C94.641 94 96.001 95.36 96.001 97V113C96.001 114.64 94.641 116 93.001 116Z" fill="#1F7168"/>
<path d="M75.6408 73.48C75.5208 73.48 75.4408 73.48 75.3208 73.48C75.1208 73.44 74.8408 73.44 74.6008 73.48C63.0008 73.12 54.2408 64 54.2408 52.76C54.2008 47.24 56.3608 42.04 60.2808 38.12C64.2008 34.2 69.4008 32 74.9608 32C86.4008 32 95.7208 41.32 95.7208 52.76C95.7208 64 86.9608 73.08 75.7608 73.48C75.7208 73.48 75.6808 73.48 75.6408 73.48ZM74.9608 38C71.0008 38 67.3208 39.56 64.5208 42.32C61.7608 45.12 60.2408 48.8 60.2408 52.72C60.2408 60.72 66.4808 67.2 74.4408 67.44C74.6808 67.4 75.2008 67.4 75.7208 67.44C83.6008 67.08 89.7208 60.64 89.7208 52.72C89.7208 44.64 83.0808 38 74.9608 38Z" fill="#1F7168"/>
<path d="M74.9606 117.24C66.8006 117.24 59.0806 115.12 53.2406 111.2C47.6806 107.48 44.6406 102.4 44.6406 96.92C44.6406 91.44 47.7206 86.4 53.2406 82.72C65.2006 74.72 84.6406 74.72 96.6006 82.72C97.9606 83.64 98.3606 85.52 97.4406 86.88C96.5206 88.28 94.6406 88.64 93.2806 87.72C83.3206 81.08 66.5206 81.08 56.5606 87.72C52.7206 90.28 50.6406 93.52 50.6406 96.92C50.6406 100.32 52.7206 103.64 56.5606 106.2C61.4006 109.44 67.9206 111.2 74.9206 111.2C76.5606 111.2 77.9206 112.56 77.9206 114.2C77.9206 115.84 76.6006 117.24 74.9606 117.24Z" fill="#1F7168"/>
</svg>
