<svg width="62" height="30" viewBox="0 0 62 30" fill="none" xmlns="http://www.w3.org/2000/svg">
<path d="M15.0627 21.2123H12.1169C11.8009 22.585 11.2818 23.727 10.5594 24.6383C9.84841 25.5497 9.00758 26.2476 8.03697 26.7321C7.06635 27.2281 6.00544 27.5165 4.85424 27.5972C3.70305 27.6895 2.53492 27.5857 1.34986 27.2858V23.2368C1.97061 23.5021 2.6365 23.6809 3.34753 23.7732C4.05856 23.8655 4.73574 23.8424 5.37905 23.704C6.02237 23.5655 6.59233 23.2944 7.08892 22.8907C7.58552 22.4985 7.93539 21.939 8.13854 21.2123C7.69838 21.293 7.20178 21.3276 6.64876 21.3161C6.10702 21.3046 5.54835 21.2353 4.97275 21.1084C4.39715 20.97 3.83284 20.7681 3.27981 20.5028C2.73807 20.226 2.24712 19.8568 1.80696 19.3954C1.37808 18.934 1.03385 18.3687 0.774263 17.6997C0.51468 17.0306 0.384888 16.2404 0.384888 15.3291V11.7992C0.384888 10.934 0.542895 10.1208 0.85891 9.35942C1.18621 8.59807 1.62638 7.93477 2.1794 7.36952C2.74371 6.79274 3.39832 6.34285 4.14321 6.01986C4.89939 5.68532 5.70071 5.51806 6.54718 5.51806C7.39365 5.51806 8.18933 5.68532 8.93422 6.01986C9.67912 6.34285 10.3281 6.79274 10.8811 7.36952C11.4454 7.93477 11.8912 8.59807 12.2185 9.35942C12.5458 10.1208 12.7095 10.934 12.7095 11.7992C12.7095 12.7797 12.7095 13.5757 12.7095 14.1871C12.7095 14.7985 12.7038 15.2945 12.6925 15.6752C12.6925 16.0558 12.6869 16.3558 12.6756 16.5749C12.6756 16.7826 12.67 16.9787 12.6587 17.1633H15.0627V21.2123ZM4.36329 11.8857V14.8792C4.36329 15.2484 4.42537 15.5771 4.54951 15.8655C4.67366 16.1424 4.83731 16.3788 5.04047 16.5749C5.24362 16.7711 5.47499 16.9268 5.73457 17.0421C5.99416 17.146 6.26503 17.2036 6.54718 17.2152H8.748V11.8857C8.748 11.4704 8.68593 11.1128 8.56178 10.8129C8.43763 10.513 8.26834 10.265 8.0539 10.0689C7.85074 9.87275 7.61373 9.73433 7.34286 9.65358C7.08328 9.56129 6.81805 9.52092 6.54718 9.53245C6.26503 9.54399 5.99416 9.60743 5.73457 9.72279C5.47499 9.82661 5.24362 9.98234 5.04047 10.19C4.83731 10.3861 4.67366 10.6283 4.54951 10.9167C4.42537 11.1936 4.36329 11.5166 4.36329 11.8857Z" fill="#1F7168"/>
<path d="M21.225 14.8792C21.225 15.2484 21.287 15.5771 21.4112 15.8655C21.5353 16.1424 21.699 16.3788 21.9021 16.5749C22.1053 16.7595 22.3366 16.9037 22.5962 17.0075C22.8671 17.1114 23.138 17.1633 23.4088 17.1633V21.2123C22.5962 21.2123 21.8344 21.0681 21.1234 20.7797C20.4123 20.4798 19.7803 20.0702 19.2273 19.5511C18.6743 20.0702 18.0422 20.4798 17.3312 20.7797C16.6202 21.0681 15.8583 21.2123 15.0457 21.2123V17.1633C15.3166 17.1633 15.5818 17.1114 15.8414 17.0075C16.1123 16.9037 16.3493 16.7595 16.5524 16.5749C16.7669 16.3788 16.9362 16.1424 17.0603 15.8655C17.1958 15.5771 17.2635 15.2484 17.2635 14.8792V8.2693H21.225V14.8792ZM16.8233 0.223206L19.1934 2.64569L21.5635 0.223206L24.4077 3.11288L21.5635 6.01986L19.1934 3.61468L16.8233 6.01986L13.9792 3.11288L16.8233 0.223206Z" fill="#1F7168"/>
<path d="M29.5542 14.8792C29.5542 15.2484 29.6163 15.5771 29.7404 15.8655C29.8646 16.1424 30.0282 16.3788 30.2314 16.5749C30.4345 16.7595 30.6659 16.9037 30.9255 17.0075C31.1964 17.1114 31.4672 17.1633 31.7381 17.1633V21.2123C30.9255 21.2123 30.1637 21.0681 29.4526 20.7797C28.7416 20.4798 28.1096 20.0702 27.5565 19.5511C27.0035 20.0702 26.3715 20.4798 25.6604 20.7797C24.9494 21.0681 24.1876 21.2123 23.375 21.2123V17.1633C23.6459 17.1633 23.9111 17.1114 24.1707 17.0075C24.4415 16.9037 24.6785 16.7595 24.8817 16.5749C25.0961 16.3788 25.2654 16.1424 25.3896 15.8655C25.525 15.5771 25.5927 15.2484 25.5927 14.8792V8.2693H29.5542V14.8792ZM25.1356 23.3752L27.5058 25.7977L29.8759 23.3752L32.72 26.2649L29.8759 29.1718L27.5058 26.7667L25.1356 29.1718L22.2915 26.2649L25.1356 23.3752Z" fill="#1F7168"/>
<path d="M37.8835 8.2693V14.9311C37.8835 15.7963 37.7198 16.6153 37.3925 17.3882C37.0652 18.1496 36.6194 18.8129 36.0551 19.3781C35.5021 19.9433 34.8475 20.3932 34.0913 20.7278C33.3464 21.0508 32.5507 21.2123 31.7042 21.2123V17.1633C31.9751 17.1633 32.2403 17.1114 32.4999 17.0075C32.7708 16.9037 33.0078 16.7595 33.211 16.5749C33.4254 16.3788 33.5947 16.1424 33.7188 15.8655C33.8543 15.5771 33.922 15.2484 33.922 14.8792V8.2693H37.8835ZM34.9208 23.4444L37.7819 26.3514L34.9208 29.2411L32.0936 26.3514L34.9208 23.4444Z" fill="#1F7168"/>
<path d="M54.8128 21.2123H51.8671C51.5511 22.585 51.0319 23.727 50.3096 24.6383C49.5986 25.5497 48.7578 26.2476 47.7872 26.7321C46.8165 27.2281 45.7556 27.5165 44.6044 27.5972C43.4532 27.6895 42.2851 27.5857 41.1 27.2858V23.2368C41.7208 23.5021 42.3867 23.6809 43.0977 23.7732C43.8087 23.8655 44.4859 23.8424 45.1292 23.704C45.7726 23.5655 46.3425 23.2944 46.8391 22.8907C47.3357 22.4985 47.6856 21.939 47.8887 21.2123C47.4486 21.293 46.952 21.3276 46.3989 21.3161C45.8572 21.3046 45.2985 21.2353 44.7229 21.1084C44.1473 20.97 43.583 20.7681 43.03 20.5028C42.4883 20.226 41.9973 19.8568 41.5571 19.3954C41.1283 18.934 40.784 18.3687 40.5244 17.6997C40.2649 17.0306 40.1351 16.2404 40.1351 15.3291V11.7992C40.1351 10.934 40.2931 10.1208 40.6091 9.35942C40.9364 8.59807 41.3766 7.93477 41.9296 7.36952C42.4939 6.79274 43.1485 6.34285 43.8934 6.01986C44.6496 5.68532 45.4509 5.51806 46.2974 5.51806C47.1438 5.51806 47.9395 5.68532 48.6844 6.01986C49.4293 6.34285 50.0783 6.79274 50.6313 7.36952C51.1956 7.93477 51.6414 8.59807 51.9687 9.35942C52.296 10.1208 52.4597 10.934 52.4597 11.7992C52.4597 12.7797 52.4597 13.5757 52.4597 14.1871C52.4597 14.7985 52.454 15.2945 52.4427 15.6752C52.4427 16.0558 52.4371 16.3558 52.4258 16.5749C52.4258 16.7826 52.4202 16.9787 52.4089 17.1633H54.8128V21.2123ZM44.1135 11.8857V14.8792C44.1135 15.2484 44.1755 15.5771 44.2997 15.8655C44.4238 16.1424 44.5875 16.3788 44.7906 16.5749C44.9938 16.7711 45.2252 16.9268 45.4848 17.0421C45.7443 17.146 46.0152 17.2036 46.2974 17.2152H48.4982V11.8857C48.4982 11.4704 48.4361 11.1128 48.312 10.8129C48.1878 10.513 48.0185 10.265 47.8041 10.0689C47.6009 9.87275 47.3639 9.73433 47.093 9.65358C46.8335 9.56129 46.5682 9.52092 46.2974 9.53245C46.0152 9.54399 45.7443 9.60743 45.4848 9.72279C45.2252 9.82661 44.9938 9.98234 44.7906 10.19C44.5875 10.3861 44.4238 10.6283 44.2997 10.9167C44.1755 11.1936 44.1135 11.5166 44.1135 11.8857Z" fill="#1F7168"/>
<path d="M60.9751 8.2693V14.9311C60.9751 15.7963 60.8115 16.6153 60.4842 17.3882C60.1569 18.1496 59.7111 18.8129 59.1468 19.3781C58.5937 19.9433 57.9391 20.3932 57.183 20.7278C56.4381 21.0508 55.6424 21.2123 54.7959 21.2123V17.1633C55.0668 17.1633 55.332 17.1114 55.5916 17.0075C55.8625 16.9037 56.0995 16.7595 56.3026 16.5749C56.5171 16.3788 56.6864 16.1424 56.8105 15.8655C56.9459 15.5771 57.0137 15.2484 57.0137 14.8792V8.2693H60.9751ZM59.0452 0.327026L61.8893 3.234L59.0452 6.12368L56.218 3.234L59.0452 0.327026Z" fill="#1F7168"/>
</svg>
