<svg width="26" height="24" viewBox="0 0 26 24" fill="none" xmlns="http://www.w3.org/2000/svg">
<path d="M26 2.98413C24.7174 5.73545 23.8196 8 23.3066 9.77778C22.8302 11.5132 22.5736 13.1429 22.537 14.6667V24H13.852V15.9365C13.8887 13.1005 14.53 10.2011 15.7759 7.23809C17.0218 4.27513 18.5976 1.86243 20.5032 0L26 2.98413ZM12.148 2.98413C10.8654 5.73545 9.96758 8 9.45455 9.77778C8.97815 11.5132 8.72163 13.1429 8.68499 14.6667V24H0V15.9365C0.0366455 13.1005 0.677942 10.2011 1.92389 7.23809C3.16984 4.27513 4.7456 1.86243 6.65116 0L12.148 2.98413Z" fill="#FFB342"/>
</svg>
