<svg width="26" height="24" viewBox="0 0 26 24" fill="none" xmlns="http://www.w3.org/2000/svg">
<path d="M2.60881e-07 21.0159C1.28259 18.2645 2.18041 16 2.69345 14.2222C3.16984 12.4868 3.42636 10.8571 3.463 9.33333L3.463 -1.97025e-06L12.148 -1.21098e-06L12.148 8.06349C12.1113 10.8995 11.4701 13.7989 10.2241 16.7619C8.97815 19.7249 7.4024 22.1376 5.49683 24L2.60881e-07 21.0159ZM13.852 21.0159C15.1346 18.2645 16.0324 16 16.5455 14.2222C17.0218 12.4868 17.2784 10.8571 17.315 9.33333L17.315 -7.59266e-07L26 0L26 8.06349C25.9634 10.8995 25.3221 13.7989 24.0761 16.7619C22.8302 19.7249 21.2544 22.1376 19.3488 24L13.852 21.0159Z" fill="#FFB342"/>
</svg>
